# AST/ASF file generated using VICON BodyLanguage
# -----------------------------------------------
:version 1.10
:name VICON
:units
  mass 1.0
  length 0.45
  angle deg
:documentation
   .ast/.asf automatically generated from VICON data using
   VICON BodyBuilder and BodyLanguage model FoxedUp or BRILLIANT.MOD
:root
   order TX TY TZ RX RY RZ
   axis XYZ
   position 0 0 0  
   orientation 0 -0 0 
:bonedata
  begin
     id 1 
     name lhipjoint
     direction 0.432694 -0.693742 0.575759 
     length 2.19277 
     axis 0 -0 0  XYZ
  end
  begin
     id 2 
     name lfemur
     direction 0.34202 -0.939693 0  
     length 6.69022  
     axis 0 -0 20  XYZ
    dof rx ry rz
    limits (-160.0 20.0)
           (-70.0 70.0)
           (-60.0 70.0)
  end
  begin
     id 3 
     name ltibia
     direction 0.34202 -0.939693 0   
     length 6.50337   
     axis 0 -0 20   XYZ
    dof rx
    limits (-10.0 170.0)
  end
  begin
     id 4 
     name lfoot
     direction 0.158999 -0.435969 0.885805   
     length 2.70564   
     axis -90 -1.13533e-015 20   XYZ
    dof rx rz
    limits (-45.0 90.0)
           (-70.0 20.0)
  end
  begin
     id 5 
     name ltoes
     direction -0.00592919 0.00964381 0.999936   
     length 1.29929   
     axis -90 -1.13533e-015 20   XYZ
    dof rx
    limits (-90.0 20.0)
  end
  begin
     id 6 
     name rhipjoint
     direction -0.414359 -0.700339 0.581234   
     length 2.17212  
     axis 0 -0 0  XYZ 
  end
  begin
     id 7 
     name rfemur
     direction -0.34202 -0.939693 0   
     length 7.17659   
     axis 0 -0 -20   XYZ
    dof rx ry rz
    limits (-160.0 20.0)
           (-70.0 70.0)
           (-70.0 60.0)
  end
  begin
     id 8 
     name rtibia
     direction -0.34202 -0.939693 0   
     length 6.36669   
     axis 0 -0 -20   XYZ
    dof rx
    limits (-10.0 170.0)
 end
 begin
     id 9 
     name rfoot
     direction -0.137064 -0.37658 0.916188   
     length 2.22351  
     axis -90 1.13533e-015 -20   XYZ
    dof rx rz
    limits (-45.0 90.0)
           (-20.0 70.0)
  end
  begin
     id 10 
     name rtoes
     direction -0.000784077 -0.00289101 0.999996   
     length 1.09522   
     axis -90 1.13533e-015 -20   XYZ
    dof rx
    limits (-90.0 20.0)
  end
  begin
     id 11 
     name lowerback
     direction -0.0176242 0.984912 -0.172157   
     length 1.65301   
     axis 0 -0 0   XYZ
    dof rx ry rz
    limits (-20.0 45.0)
           (-30.0 30.0)
           (-30.0 30.0)
  end
  begin
     id 12 
     name upperback
     direction -0.00218128 0.998776 -0.0494072   
     length 1.67776   
     axis 0 -0 0   XYZ
    dof rx ry rz
    limits (-20.0 45.0)
           (-30.0 30.0)
           (-30.0 30.0)
  end
  begin
     id 13 
     name thorax
     direction 0.00544186 0.999658 0.0255711   
     length 1.72293   
     axis 0 -0 0   XYZ
    dof rx ry rz
    limits (-20.0 45.0)
           (-30.0 30.0)
           (-30.0 30.0)
  end
  begin
     id 14 
     name lowerneck
     direction -0.105325 0.983841 0.144785   
     length 2.14226   
     axis 0 -0 0   XYZ
    dof rx ry rz
    limits (-20.0 45.0)
           (-30.0 30.0)
           (-30.0 30.0)
  end
  begin
     id 15 
     name upperneck
     direction 0.0547957 0.988053 -0.144041   
     length 2.17508   
     axis 0 -0 0   XYZ
    dof rx ry rz
    limits (-20.0 45.0)
           (-30.0 30.0)
           (-30.0 30.0)
  end
  begin
     id 16
     name head
     direction 0.0247488 0.997534 -0.0656813  
     length 2.20048  
     axis 0 -0 0   XYZ
    dof rx ry rz
    limits (-20.0 45.0)
           (-30.0 30.0)
           (-30.0 30.0)
  end
  begin
     id 17 
     name lclavicle
     direction 0.820559 0.567247 -0.0701026  
     length 4.09615  
     axis 0 -0 0   XYZ
    dof ry rz
    limits (-20.0 10.0)
           (0.0 20.0)
  end
  begin
     id 18 
     name lhumerus
     direction 0.999977 -0.0067566 -9.96392e-005   
     length 4.59333   
     axis -180 -30 -90   XYZ
    dof rx ry rz
    limits (-60.0 90.0)
           (-90.0 90.0)
           (-90.0 90.0)
  end
  begin
     id 19
     name lradius
     direction 1 -4.48982e-011 -2.53425e-027   
     length 2.81151   
     axis -180 -30 -90   XYZ
    dof rx
    limits (-10.0 170.0)
  end
  begin
     id 20
     name lwrist
     direction 1 -4.48939e-011 -7.39254e-028   
     length 1.40576   
     axis 2.56395e-016 90 90   XYZ
    dof ry
    limits (-180.0 0.0)
 end
  begin
     id 21 
     name lhand
     direction 1 -4.48939e-011 -1.47851e-027   
     length 0.895651   
     axis 9.43423e-016 90 90   XYZ
    dof rx rz
    limits (-90.0 90.0)
           (-45.0 45.0)
  end
  begin
     id 22 
     name lfingers
     direction 1 -4.48978e-011 -2.95702e-027   
     length 0.722097   
     axis 1.88685e-015 90 90   XYZ
    dof rx
    limits (0.0 90.0)
  end
  begin
     id 23
     name lthumb
     direction 0.707107 -6.34931e-011 0.707107   
     length 1.03679   
     axis -90 45 -9.86935e-015   XYZ
    dof rx rz
    limits (-45.0 45.0)
           (-45.0 45.0)
  end
  begin
     id 24 
     name rclavicle
     direction -0.831414 0.553102 -0.0531864   
     length 4.24872  
     axis 0 -0 0   XYZ 
    dof ry rz
    limits (-10.0 20.0)
           (-20.0 0.0)
  end
  begin
     id 25 
     name rhumerus
     direction -0.999916 -0.000939607 0.0129331  
     length 4.74834   
     axis -180 30 90   XYZ
    dof rx ry rz
    limits (-90.0 60.0)
           (-90.0 90.0)
           (-90.0 90.0)
  end
  begin
     id 26 
     name rradius
     direction -1 -4.48956e-011 -1.31752e-027   
     length 2.79907   
     axis -180 30 90   XYZ
    dof rx
    limits (-10.0 170.0)
  end
  begin
     id 27 
     name rwrist
     direction -1 -4.4897e-011 -7.39254e-028   
     length 1.39954   
     axis 2.56395e-016 -90 -90   XYZ
    dof ry
    limits (-180.0 0.0)
  end
  begin
     id 28
     name rhand
     direction -0.999997 -0.00250697 0.000800838   
     length 0.953304   
     axis 9.43423e-016 -90 -90   XYZ
    dof rx rz
    limits (-90.0 90.0)
           (-45.0 45.0)
  end
  begin
     id 29
     name rfingers
     direction -1 -4.48954e-011 -2.95702e-027   
     length 0.763342   
     axis 1.88685e-015 -90 -90   XYZ
    dof rx
    limits (0.0 90.0)
  end
  begin
     id 30
     name rthumb
     direction -0.709701 -0.00217037 0.7045   
     length 1.10115   
     axis -90 -45 9.86935e-015   XYZ
    dof rx rz
    limits (-45.0 45.0)
           (-45.0 45.0)
  end
:hierarchy
  begin
    root lhipjoint rhipjoint lowerback
    lhipjoint lfemur
    lfemur ltibia
    ltibia lfoot
    lfoot ltoes
    rhipjoint rfemur
    rfemur rtibia
    rtibia rfoot
    rfoot rtoes
    lowerback upperback
    upperback thorax
    thorax lowerneck lclavicle rclavicle
    lowerneck upperneck
    upperneck head
    lclavicle lhumerus
    lhumerus lradius
    lradius lwrist
    lwrist lhand lthumb
    lhand lfingers
    rclavicle rhumerus
    rhumerus rradius
    rradius rwrist
    rwrist rhand rthumb
    rhand rfingers
  end

#!OML:ASF G:\ViconDB\ViconDB\414\test\team2\shane.ASF
:FULLY-SPECIFIED
:DEGREES
17
root 1.72093 16.5556 -24.6188 -4.30841 -7.80396 -4.72186
lowerback 7.70079 -0.957721 1.85701
upperback 2.79567 -1.08817 2.99261
thorax -1.40338 -0.552331 2.13842
lowerneck -17.5038 -1.15772 -7.21437
upperneck 21.7939 -1.59196 8.06178
head 9.93082 -0.408369 3.84354
rclavicle 2.11706e-014 3.49861e-014
rhumerus -43.7363 4.38199 -89.325
rradius 26.7046
rwrist 36.4969
rhand -28.3244 -14.3624
rfingers 7.12502
rthumb -1.69926 -44.3354
lclavicle 2.11706e-014 3.49861e-014
lhumerus -32.7088 -19.2571 99.1165
lradius 29.3344
lwrist -14.8773
lhand -38.77 6.66887
lfingers 7.12502
lthumb -11.7818 36.3175
rfemur 3.35067 -17.6843 19.6264
rtibia 30.9257
rfoot -31.5025 9.56676
rtoes -5.85071
lfemur 6.4891 10.569 -0.181416
ltibia 28.7853
lfoot -25.4724 -5.07891
ltoes -17.0296
18
root 1.69139 16.56 -24.5999 -4.42864 -7.84738 -4.48132
lowerback 7.73628 -0.88017 1.82374
upperback 2.97225 -0.9949 2.86745
thorax -1.24473 -0.50529 2.018
lowerneck -17.6079 -1.1638 -7.28363
upperneck 21.8002 -1.61266 8.21769
head 9.95615 -0.403724 3.90997
rclavicle 1.93815e-014 -1.74931e-014
rhumerus -43.555 4.27668 -89.296
rradius 26.6247
rwrist 36.5472
rhand -28.0193 -14.3653
rfingers 7.12502
rthumb -1.40453 -44.3404
lclavicle 1.93815e-014 -1.74931e-014
lhumerus -32.5409 -19.4306 98.8073
lradius 29.7758
lwrist -14.7474
lhand -38.7323 6.73053
lfingers 7.12502
lthumb -11.7455 36.3812
rfemur 3.66339 -17.8668 19.3196
rtibia 30.7197
rfoot -31.5456 9.82176
rtoes -5.6401
lfemur 5.86232 10.0979 -0.525673
ltibia 30.3053
lfoot -25.2658 -4.59951
ltoes -17.6535
19
root 1.65915 16.5602 -24.5837 -4.47754 -7.82152 -4.48079
lowerback 8.00403 -0.904067 1.86464
upperback 3.01215 -1.01528 2.84867
thorax -1.35215 -0.515436 1.98221
lowerneck -17.6223 -1.10879 -7.13244
upperneck 21.8529 -1.55386 8.1096
head 9.97041 -0.37618 3.85479
rclavicle 1.84124e-014 6.75868e-015
rhumerus -43.3698 4.07417 -89.1637
rradius 26.4218
rwrist 36.6308
rhand -28.0066 -14.2861
rfingers 7.12502
rthumb -1.39229 -44.2613
lclavicle 1.84124e-014 6.75868e-015
lhumerus -32.111 -18.6093 98.2381
lradius 29.506
lwrist -15.9254
lhand -38.9161 6.55434
lfingers 7.12502
lthumb -11.9228 36.1948
rfemur 3.9376 -18.1414 19.3125
rtibia 30.4671
rfoot -31.5312 10.0778
rtoes -5.58619
lfemur 5.0916 9.89019 -0.464384
ltibia 31.9234
lfoot -25.1093 -4.58065
ltoes -17.6495
20
root 1.62569 16.5651 -24.5661 -4.47272 -7.80642 -4.51193
lowerback 8.02569 -0.835552 1.90555
upperback 3.12407 -0.923727 2.89316
thorax -1.25022 -0.469718 1.99619
lowerneck -17.5554 -1.12739 -7.17253
upperneck 21.7433 -1.56664 8.11076
head 9.92031 -0.386047 3.85646
rclavicle 1.31943e-014 -2.18663e-014
rhumerus -43.1539 3.99959 -89.0309
rradius 26.2963
rwrist 36.8021
rhand -28.0817 -14.4167
rfingers 7.12502
rthumb -1.46484 -44.3914
lclavicle 1.31943e-014 -2.18663e-014
lhumerus -32.0255 -18.7245 98.1497
lradius 29.9093
lwrist -15.3741
lhand -39.1219 6.55701
lfingers 7.12502
lthumb -12.1212 36.1859
rfemur 4.17377 -18.1777 19.4344
rtibia 30.1486
rfoot -31.4433 10.1312
rtoes -5.5663
lfemur 4.25659 9.42094 -0.495426
ltibia 33.6041
lfoot -24.9063 -4.24481
ltoes -17.5571
21
root 1.5985 16.5691 -24.541 -4.53096 -7.90973 -4.37909
lowerback 8.08038 -0.796273 1.87653
upperback 3.25812 -0.877169 2.87299
thorax -1.14283 -0.446572 1.98705
lowerneck -17.6278 -1.057 -7.06706
upperneck 21.7116 -1.4474 7.93529
head 9.91032 -0.340711 3.79111
rclavicle -3.63527e-014 3.10104e-014
rhumerus -42.8448 3.86235 -88.8357
rradius 26.0979
rwrist 37.3229
rhand -28.0796 -14.3447
rfingers 7.12502
rthumb -1.46276 -44.3195
lclavicle -3.63527e-014 3.10104e-014
lhumerus -31.8083 -18.4378 97.8341
lradius 30.042
lwrist -15.9474
lhand -39.2644 6.70803
lfingers 7.12502
lthumb -12.2586 36.3287
rfemur 4.48881 -18.2677 19.2691
rtibia 29.8247
rfoot -31.4412 10.3111
rtoes -5.6312
lfemur 3.4603 9.33658 -0.670656
ltibia 35.3504
lfoot -24.5194 -4.03366
ltoes -17.252
22
root 1.57441 16.578 -24.5187 -4.61498 -8.04565 -4.33208
lowerback 8.2081 -0.710185 1.97341
upperback 3.39247 -0.755347 2.90119
thorax -1.07774 -0.385341 1.95177
lowerneck -17.5522 -1.03521 -7.12969
upperneck 21.5681 -1.38218 7.88141
head 9.83952 -0.322595 3.78625
rclavicle 2.13694e-015 -2.34566e-014
rhumerus -42.4997 3.77967 -88.6841
rradius 25.8228
rwrist 37.6558
rhand -28.1902 -14.3817
rfingers 7.12502
rthumb -1.56963 -44.3556
lclavicle 2.13694e-015 -2.34566e-014
lhumerus -31.5334 -18.051 97.6129
lradius 30.0308
lwrist -16.1898
lhand -39.4927 6.33246
lfingers 7.12502
lthumb -12.4787 35.9399
rfemur 4.85378 -18.2671 19.2124
rtibia 29.4237
rfoot -31.3453 10.3831
rtoes -6.02974
lfemur 2.7046 9.07622 -0.806819
ltibia 37.0968
lfoot -24.2877 -3.7913
ltoes -15.6687
23
root 1.54753 16.5804 -24.4946 -4.70523 -8.07011 -4.32269
lowerback 8.35939 -0.642382 2.07943
upperback 3.52102 -0.656819 2.85657
thorax -1.03188 -0.334999 1.83833
lowerneck -17.5648 -1.06439 -7.11851
upperneck 21.5119 -1.44427 7.96957
head 9.82794 -0.339775 3.80621
rclavicle -2.13694e-015 2.38542e-015
rhumerus -42.1684 3.677 -88.7545
rradius 25.5991
rwrist 37.9732
rhand -28.3824 -14.751
rfingers 7.12502
rthumb -1.75523 -44.7236
lclavicle -2.13694e-015 2.38542e-015
lhumerus -31.3574 -17.665 97.1753
lradius 30.0272
lwrist -16.9857
lhand -39.6798 6.12439
lfingers 7.12502
lthumb -12.6591 35.7207
rfemur 5.25581 -18.3311 19.2043
rtibia 29.0172
rfoot -31.2364 10.5518
rtoes -5.64922
lfemur 1.93495 9.00574 -0.837001
ltibia 38.8216
lfoot -24.0924 -3.783
ltoes -14.814
24
root 1.51771 16.591 -24.469 -4.67784 -8.13846 -4.36374
lowerback 8.40431 -0.573703 2.1346
upperback 3.60027 -0.562196 2.89077
thorax -0.976342 -0.287428 1.83417
lowerneck -17.4884 -1.02255 -7.06909
upperneck 21.4219 -1.39292 7.94236
head 9.77671 -0.315953 3.79152
rclavicle 1.20265e-014 -1.78906e-014
rhumerus -41.817 3.69921 -88.6967
rradius 25.2435
rwrist 38.6151
rhand -28.5417 -14.8507
rfingers 7.12502
rthumb -1.90911 -44.8219
lclavicle 1.20265e-014 -1.78906e-014
lhumerus -31.2698 -17.4632 97.0344
lradius 30.2341
lwrist -16.8406
lhand -39.659 6.22506
lfingers 7.12502
lthumb -12.6391 35.8227
rfemur 5.55476 -18.2768 19.3481
rtibia 28.5362
rfoot -31.077 10.5504
rtoes -5.75335
lfemur 1.01074 8.87703 -0.823019
ltibia 40.489
lfoot -23.8355 -3.80185
ltoes -13.4
25
root 1.49003 16.5955 -24.4363 -4.77761 -8.23496 -4.21655
lowerback 8.4814 -0.469363 2.05528
upperback 3.72438 -0.432408 2.82963
thorax -0.89268 -0.222649 1.80379
lowerneck -17.5116 -1.01081 -6.95526
upperneck 21.4265 -1.40303 7.92421
head 9.78278 -0.312771 3.76467
rclavicle -1.10822e-014 -6.75868e-015
rhumerus -41.3161 3.49249 -88.7892
rradius 24.9102
rwrist 38.3817
rhand -28.615 -14.9888
rfingers 7.12502
rthumb -1.97987 -44.9594
lclavicle -1.10822e-014 -6.75868e-015
lhumerus -31.1947 -17.3524 96.7968
lradius 30.282
lwrist -16.9497
lhand -39.7966 6.17286
lfingers 7.12502
lthumb -12.7717 35.7622
rfemur 6.01242 -18.2862 19.1768
rtibia 28.0521
rfoot -30.9531 10.6785
rtoes -6.11415
lfemur 0.176244 8.87175 -1.0791
ltibia 42.0577
lfoot -23.8427 -3.44874
ltoes -12.7658
26
root 1.46277 16.6053 -24.3998 -4.83036 -8.29708 -4.15794
lowerback 8.4513 -0.378801 2.08907
upperback 3.85256 -0.316361 2.78527
thorax -0.745882 -0.163514 1.72752
lowerneck -17.4846 -1.0074 -6.8593
upperneck 21.3944 -1.42016 7.90297
head 9.76718 -0.315475 3.7373
rclavicle -5.91384e-015 -1.23246e-014
rhumerus -40.8431 3.3801 -88.8357
rradius 24.554
rwrist 38.6312
rhand -28.7954 -15.3164
rfingers 7.12502
rthumb -2.15413 -45.2853
lclavicle -5.91384e-015 -1.23246e-014
lhumerus -31.1391 -17.1748 96.5968
lradius 30.2653
lwrist -17.3207
lhand -39.8552 6.21657
lfingers 7.12502
lthumb -12.8281 35.8024
rfemur 6.48143 -18.3276 19.1039
rtibia 27.4835
rfoot -30.786 10.7845
rtoes -5.96041
lfemur -0.625948 8.98097 -1.17533
ltibia 43.5101
lfoot -23.9488 -3.63645
ltoes -12.2084
27
root 1.43922 16.6143 -24.3651 -4.88818 -8.4343 -4.08134
lowerback 8.55713 -0.268344 2.11448
upperback 3.93678 -0.167842 2.71022
thorax -0.719614 -0.0883257 1.62281
lowerneck -17.4301 -0.976109 -6.64927
upperneck 21.3521 -1.42558 7.85605
head 9.74087 -0.30681 3.68235
rclavicle 2.28105e-014 -3.18055e-014
rhumerus -40.2208 2.63802 -88.6222
rradius 24.0176
rwrist 39.6159
rhand -28.6432 -15.0187
rfingers 7.12502
rthumb -2.00712 -44.989
lclavicle 2.28105e-014 -3.18055e-014
lhumerus -31.1944 -17.1845 96.4274
lradius 30.2647
lwrist -17.2701
lhand -40.0289 6.17203
lfingers 7.12502
lthumb -12.9957 35.7473
rfemur 6.93796 -18.2872 19.008
rtibia 26.9141
rfoot -30.5938 10.9781
rtoes -5.9548
lfemur -1.40172 8.95913 -1.38838
ltibia 44.802
lfoot -24.2121 -3.59809
ltoes -11.9648
